<svg width="23" height="21" viewBox="0 0 23 21" fill="none" xmlns="http://www.w3.org/2000/svg">
<path d="M1.85948 18.2663C1.7596 18.2663 1.66531 18.2551 1.57503 18.2319C1.48554 18.2087 1.40963 18.1792 1.3481 18.1432C1.28658 18.1073 1.23704 18.0753 1.20108 18.0465C1.16433 18.0178 1.13397 17.9898 1.1084 17.9626L1.29057 17.7693C1.44798 17.9243 1.63335 18.0018 1.84669 18.0018C1.97294 18.0018 2.06562 17.981 2.12395 17.9395C2.18228 17.8979 2.21184 17.846 2.21184 17.7829C2.21184 17.7645 2.20945 17.7477 2.20625 17.7325C2.20225 17.7173 2.19586 17.7038 2.18627 17.691C2.17669 17.679 2.1687 17.6678 2.1615 17.6574C2.15431 17.6478 2.14233 17.6382 2.12395 17.6287C2.10637 17.6191 2.09279 17.6127 2.084 17.6079C2.07521 17.6031 2.06003 17.5975 2.03686 17.5903C2.01449 17.5831 1.9993 17.5783 1.99131 17.5751C1.98332 17.5719 1.96654 17.5671 1.94018 17.5615C1.91381 17.5551 1.89783 17.5519 1.89303 17.5504C1.86027 17.5408 1.81313 17.5296 1.75241 17.516C1.69168 17.5024 1.63895 17.4888 1.595 17.476C1.55026 17.4633 1.50631 17.4473 1.46316 17.4289C1.27619 17.3522 1.18271 17.2283 1.18271 17.0566C1.18271 16.9631 1.21467 16.8808 1.27779 16.8105C1.34091 16.7401 1.41922 16.6874 1.5143 16.6539C1.60858 16.6203 1.70926 16.6035 1.81713 16.6035C1.94018 16.6035 2.06003 16.6235 2.17589 16.6634C2.29174 16.7034 2.38843 16.7561 2.46433 16.8224L2.32371 17.0294C2.17269 16.9159 2.0041 16.8592 1.81873 16.8592C1.71885 16.8592 1.63575 16.8752 1.56943 16.9063C1.50311 16.9375 1.47035 16.9854 1.47035 17.0502C1.47035 17.1053 1.49672 17.1484 1.54946 17.1804C1.60219 17.2124 1.69727 17.2427 1.83471 17.2739C2.03126 17.317 2.17109 17.361 2.25579 17.4073C2.41799 17.4944 2.49869 17.6223 2.49869 17.7893C2.49869 17.8708 2.47951 17.9435 2.44036 18.0082C2.40121 18.0729 2.35007 18.1224 2.28615 18.1592C2.22223 18.1952 2.15351 18.2223 2.08 18.2407C2.0065 18.2591 1.93378 18.2663 1.85948 18.2663Z" fill="white"/>
<path d="M4.2209 16.6309H4.48937V18.2385H4.20652V17.1159L3.68077 17.827L3.15741 17.1135V18.2385H2.87695V16.6309H3.13663L3.67917 17.3811L4.2209 16.6309Z" fill="white"/>
<path d="M1.21875 20.9987V19.3911H2.45084V19.6508H1.504V20.0191H2.20554V20.2812H1.504V20.7367H2.46282V20.9987H1.21875Z" fill="white"/>
<path d="M2.8418 20.9987V19.3911H3.10148L3.9828 20.5185L3.98519 19.3911H4.26565V20.9987H4.00836L3.12225 19.8673V20.9987H2.8418Z" fill="white"/>
<path d="M5.12101 20.9987V19.6532H4.60645V19.3911H5.92323V19.6532H5.40866V20.9987H5.12101Z" fill="white"/>
<path d="M6.26465 20.9987V19.3911H7.49673V19.6508H6.5499V20.0191H7.25144V20.2812H6.5499V20.7367H7.50872V20.9987H6.26465Z" fill="white"/>
<path d="M7.88672 20.9987V19.3911H8.72169C8.80559 19.3911 8.8799 19.4055 8.94382 19.4351C9.00774 19.4638 9.05648 19.503 9.09004 19.5525C9.1236 19.6013 9.14837 19.6532 9.16515 19.7067C9.18193 19.7603 9.18992 19.8162 9.18992 19.8745C9.18992 19.9776 9.16435 20.0727 9.11241 20.1598C9.06128 20.2469 8.98057 20.306 8.87191 20.3372L9.27621 20.9995H8.9582L8.57707 20.3603H8.17277V20.9995H7.88672V20.9987ZM8.17197 20.0974H8.69373C8.76244 20.0974 8.81438 20.0775 8.85034 20.0375C8.88629 19.9976 8.90387 19.9432 8.90387 19.8745C8.90387 19.809 8.88709 19.7555 8.85273 19.7155C8.81837 19.6756 8.76963 19.6556 8.70571 19.6556H8.17277V20.0974H8.17197Z" fill="white"/>
<path d="M9.9257 20.9987V19.6532H9.41113V19.3911H10.7271V19.6532H10.2125V20.9987H9.9257Z" fill="white"/>
<path d="M10.7178 20.999L11.48 19.3818H11.7301L12.4924 20.999H12.1888L12.0154 20.6243H11.1828L11.0054 20.999H10.7178ZM11.3043 20.3686H11.8955L11.6031 19.7382L11.3043 20.3686Z" fill="white"/>
<path d="M12.7803 20.9987V19.3911H13.0655V20.9987H12.7803Z" fill="white"/>
<path d="M13.54 20.9987V19.3911H13.7997L14.681 20.5185L14.6834 19.3911H14.9639V20.9987H14.7066L13.8205 19.8673V20.9987H13.54Z" fill="white"/>
<path d="M16.7668 19.3911H17.0353V20.9987H16.7524V19.8761L16.2267 20.5872L15.7033 19.8737V20.9987H15.4229V19.3911H15.6825L16.2251 20.1414L16.7668 19.3911Z" fill="white"/>
<path d="M17.4941 20.9987V19.3911H18.7262V19.6508H17.7794V20.0191H18.4809V20.2812H17.7794V20.7367H18.7382V20.9987H17.4941Z" fill="white"/>
<path d="M19.1162 20.9987V19.3911H19.3759L20.2572 20.5185L20.2596 19.3911H20.5401V20.9987H20.2828L19.3967 19.8673V20.9987H19.1162Z" fill="white"/>
<path d="M21.3954 20.9987V19.6532H20.8809V19.3911H22.1968V19.6532H21.6823V20.9987H21.3954Z" fill="white"/>
<path d="M18.8025 9.20649C18.8025 10.0718 19.5064 10.7758 20.3718 10.7758C21.2371 10.7758 21.941 10.0718 21.941 9.20649L21.9394 3.04925C21.9394 1.98976 21.0773 1.12761 20.0178 1.12761C19.6918 1.12761 19.3778 1.20832 19.0989 1.36013C18.9263 0.590674 18.2376 0.013783 17.417 0.013783C16.9568 0.013783 16.5237 0.192763 16.1985 0.518763L12.201 4.51625L8.41366 0.77365C7.38293 -0.257883 5.70419 -0.257883 4.67266 0.77365C4.54082 0.905488 4.42496 1.04851 4.32668 1.19953C4.32509 1.19953 4.32349 1.19953 4.32269 1.19953C3.61636 1.19953 2.95157 1.47439 2.45219 1.97457C1.42065 3.00611 1.42065 4.68405 2.45219 5.71558L7.6546 10.918C8.09006 11.3535 8.33057 11.9335 8.33057 12.5496C8.33057 12.9954 8.20512 13.4213 7.97101 13.7881C7.53794 13.7026 7.12405 13.4924 6.78926 13.1568L2.35471 8.72228C2.09423 8.4618 1.74825 8.31878 1.3799 8.31878C1.01156 8.31878 0.665582 8.4618 0.405102 8.72228C0.143024 8.98197 0 9.32794 0 9.69629C0 10.0646 0.143024 10.4106 0.403504 10.6711L4.1517 14.4193C4.65109 14.9187 5.31587 15.1943 6.0222 15.1943C6.72853 15.1943 7.39332 14.9195 7.8927 14.4193C7.9766 14.3354 8.05411 14.2467 8.12522 14.154C8.2219 14.1644 8.32018 14.17 8.41926 14.17C9.12559 14.17 9.79037 13.8951 10.2898 13.3949C10.7891 12.8956 11.0648 12.2308 11.0648 11.5244C11.0648 10.8181 10.7899 10.1533 10.2898 9.65394L4.91236 4.27575C4.17407 3.53745 4.04143 2.42043 4.51445 1.5455C5.05859 1.59025 5.56356 1.82356 5.95428 2.21348L9.30297 5.56217C9.94538 6.20538 10.9913 6.20538 11.6345 5.56217L12.2026 4.99406L12.666 5.4527C13.4131 6.19978 14.6292 6.19978 15.3763 5.4527L18.8025 2.02651V9.20649ZM19.1405 1.73806C19.1405 1.73567 19.1405 1.73327 19.1405 1.73087C19.3978 1.55829 19.7006 1.4664 20.0178 1.4664C20.8903 1.4664 21.6007 2.17673 21.6007 3.04925L21.6023 9.20649C21.6023 9.88486 21.0501 10.437 20.3718 10.437C19.6934 10.437 19.1413 9.88486 19.1413 9.20649V1.73806H19.1405ZM7.6538 14.1804C6.7541 15.0801 5.2903 15.0801 4.39061 14.1804L0.64321 10.4322C0.446651 10.2356 0.338784 9.97435 0.338784 9.69629C0.338784 9.41823 0.446651 9.15695 0.64321 8.96039C0.839768 8.76383 1.10105 8.65597 1.37911 8.65597C1.65716 8.65597 1.91844 8.76383 2.115 8.96039L6.54955 13.3949C6.88594 13.7313 7.29743 13.9662 7.74568 14.0837C7.71612 14.1173 7.68576 14.1492 7.6538 14.1804ZM4.67266 4.51465L10.0509 9.89285C10.9505 10.7925 10.9505 12.2563 10.0509 13.156C9.58023 13.6267 8.95779 13.852 8.33856 13.8296C8.55349 13.4421 8.66775 13.0042 8.66775 12.5488C8.66775 11.8425 8.39289 11.1777 7.8927 10.6783L2.69109 5.47667C2.25563 5.04121 2.01512 4.46192 2.01512 3.84508C2.01512 3.22903 2.25483 2.64974 2.69109 2.21348C3.08261 1.82196 3.59079 1.58865 4.13652 1.5447C3.69226 2.5211 3.87124 3.71324 4.67266 4.51465ZM11.3948 5.32326C10.8842 5.83383 10.0524 5.83383 9.54188 5.32326L6.19319 1.97457C5.78889 1.57027 5.27672 1.31299 4.7214 1.22909C4.77973 1.15398 4.84365 1.08207 4.91236 1.01256C5.81206 0.112861 7.27586 0.112861 8.17556 1.01336L11.9613 4.75596L11.3948 5.32326ZM18.6595 1.69092L15.1366 5.21379C14.5214 5.82904 13.5202 5.82904 12.9041 5.213L12.4415 4.75516L16.4382 0.758468C16.6995 0.497189 17.0479 0.352567 17.4178 0.352567C18.1249 0.352567 18.709 0.884713 18.7929 1.56947C18.7466 1.60782 18.7018 1.64778 18.6595 1.69092Z" fill="white"/>
<path d="M20.3801 11.6587C19.4484 11.6587 18.6934 12.4138 18.6934 13.3454C18.6934 14.2771 19.4484 15.0321 20.3801 15.0321C21.3117 15.0321 22.0668 14.2771 22.0668 13.3454C22.0668 12.4146 21.3117 11.6587 20.3801 11.6587ZM20.3801 14.6942C19.6362 14.6942 19.0313 14.0893 19.0313 13.3454C19.0313 12.6015 19.6362 11.9967 20.3801 11.9967C21.124 11.9967 21.7288 12.6015 21.7288 13.3454C21.7288 14.0893 21.1232 14.6942 20.3801 14.6942Z" fill="white"/>
</svg>
