<svg width="187" height="120" viewBox="0 0 187 120" fill="none" xmlns="http://www.w3.org/2000/svg">
<g clip-path="url(#clip0_1_9)">
<path fill-rule="evenodd" clip-rule="evenodd" d="M150.023 11.0516C149.572 11.72 149.304 12.0666 149.094 12.4402C140.48 27.7495 131.882 43.071 123.233 58.3628C122.519 59.6332 122.6 60.5881 123.298 61.8287C131.785 76.9548 140.22 92.1129 148.678 107.261C148.95 107.753 149.298 108.205 149.724 108.841C150.095 108.338 150.385 108.018 150.595 107.65C159.489 92.1654 168.365 76.6676 177.299 61.2079C177.988 60.0159 177.714 59.2205 177.115 58.1858C171.957 49.2784 166.844 40.3399 161.718 31.4097C157.882 24.7351 154.047 18.0582 150.023 11.0516V11.0516ZM150.066 119.648C146.686 120.838 145.286 118.844 143.816 116.182C133.693 97.8814 123.438 79.6548 113.173 61.4335C112.5 60.2355 112.515 59.3854 113.195 58.2148C124.035 39.4709 134.846 20.7035 145.599 1.90866C146.385 0.532119 147.332 0.337642 148.757 0.119629C152.721 -0.487346 154.707 1.24392 156.593 4.6664C166.323 22.3177 176.335 39.815 186.31 57.3305C187.14 58.7891 187.206 59.8603 186.368 61.3736C176.239 79.66 166.14 97.9648 156.179 116.342C154.745 118.985 153.299 120.727 150.066 119.648" fill="white"/>
<path fill-rule="evenodd" clip-rule="evenodd" d="M49.6602 0.633286C52.695 0.633286 55.1504 0.487424 57.5722 0.716911C58.3548 0.79062 59.2907 1.71286 59.7374 2.48709C68.7298 18.1792 77.6639 33.9086 86.6116 49.6266C86.9762 50.2709 87.356 50.8991 87.9311 51.8791C88.4545 51.0276 88.8716 50.3956 89.2454 49.7361C98.1968 34.0234 107.161 18.3235 116.047 2.57207C116.902 1.05881 117.829 0.467787 119.538 0.596144C121.599 0.748034 123.674 0.631149 126.245 0.631149C125.629 1.80795 125.191 2.68313 124.707 3.53845C114.561 21.5538 104.438 39.5859 94.1948 57.5464C93.0172 59.6175 93.0279 61.0782 94.2191 63.143C104.4 80.8081 114.448 98.5469 124.536 116.264C125.042 117.155 125.528 118.059 126.249 119.368C122.925 119.368 119.932 119.454 116.957 119.286C116.433 119.255 115.875 118.203 115.493 117.53C106.882 102.3 98.2933 87.0628 89.6974 71.8248C89.1997 70.9345 88.6717 70.063 87.9502 68.8263C87.166 70.1877 86.547 71.2474 85.9445 72.3149C77.4276 87.4319 68.8955 102.538 60.4249 117.686C59.7199 118.94 58.9945 119.515 57.5001 119.428C55.0669 119.29 52.6168 119.391 49.6882 119.391C50.356 118.18 50.8521 117.248 51.3747 116.328C61.6001 98.3388 71.8036 80.3394 82.1074 62.3964C83.0273 60.7941 82.8942 59.6698 82.0465 58.1748C71.8925 40.2339 61.7894 22.2672 51.6763 4.31112C51.0709 3.23389 50.4896 2.14674 49.6602 0.633286" fill="white"/>
<path fill-rule="evenodd" clip-rule="evenodd" d="M42.8309 119.834C39.7268 119.834 37.1278 119.955 34.5548 119.757C33.8414 119.702 32.9715 118.833 32.5613 118.113C24.4023 103.833 16.3023 89.5125 8.18819 75.2069C5.66596 70.7589 3.19081 66.282 0.588844 61.8826C-0.189664 60.5683 -0.198807 59.5959 0.576784 58.2482C11.3294 39.5683 22.0343 20.857 32.6996 2.12831C33.4297 0.85135 34.2592 0.370394 35.701 0.448575C37.8207 0.563319 39.9524 0.475224 42.5954 0.475224C31.9308 18.9159 21.5002 36.954 10.7878 55.4708C12.1225 55.4708 12.9666 55.4708 13.8083 55.4708C24.7099 55.4708 35.6077 55.4708 46.5093 55.4768C47.3221 55.4784 48.1465 55.4609 48.9479 55.5855C51.2763 55.9418 52.8064 57.7423 52.8064 60.0335C52.8064 62.315 51.2726 64.145 48.9668 64.5165C48.1677 64.6425 47.3411 64.619 46.5282 64.619C35.85 64.6236 25.1718 64.6213 14.4942 64.6213C13.6374 64.6213 12.782 64.6213 11.3985 64.6213C21.9582 83.1707 32.2712 101.282 42.8309 119.834Z" fill="white"/>
</g>
<defs>
<clipPath id="clip0_1_9">
<rect width="186.965" height="120" fill="white"/>
</clipPath>
</defs>
</svg>
