<svg width="174" height="40" viewBox="0 0 174 40" fill="none" xmlns="http://www.w3.org/2000/svg">
<path d="M70.7781 19.3641C70.2757 19.3641 69.8014 19.3078 69.3473 19.1913C68.8971 19.0747 68.5153 18.926 68.2058 18.7451C67.8963 18.5643 67.6471 18.4035 67.4662 18.2588C67.2813 18.1141 67.1286 17.9734 67 17.8368L67.9164 16.8641C68.7082 17.6439 69.6407 18.0337 70.7138 18.0337C71.3489 18.0337 71.8151 17.9292 72.1085 17.7202C72.4019 17.5112 72.5506 17.25 72.5506 16.9324C72.5506 16.84 72.5386 16.7556 72.5225 16.6792C72.5024 16.6029 72.4702 16.5345 72.422 16.4702C72.3738 16.4099 72.3336 16.3537 72.2974 16.3014C72.2612 16.2532 72.2009 16.205 72.1085 16.1567C72.0201 16.1085 71.9517 16.0763 71.9075 16.0522C71.8633 16.0281 71.787 16 71.6704 15.9638C71.5579 15.9276 71.4815 15.9035 71.4413 15.8874C71.4011 15.8714 71.3167 15.8472 71.1841 15.8191C71.0514 15.7869 70.971 15.7709 70.9469 15.7628C70.7821 15.7146 70.545 15.6583 70.2395 15.59C69.9341 15.5217 69.6688 15.4534 69.4477 15.389C69.2227 15.3247 69.0016 15.2444 68.7846 15.1519C67.844 14.7661 67.3738 14.1431 67.3738 13.2789C67.3738 12.8087 67.5346 12.3947 67.8521 12.041C68.1696 11.6873 68.5635 11.422 69.0418 11.2532C69.5161 11.0844 70.0225 11 70.5651 11C71.1841 11 71.787 11.1005 72.3697 11.3014C72.9525 11.5024 73.4389 11.7677 73.8207 12.1013L73.1133 13.1423C72.3537 12.5715 71.5056 12.2862 70.5731 12.2862C70.0707 12.2862 69.6527 12.3665 69.3191 12.5233C68.9855 12.6801 68.8207 12.9212 68.8207 13.2468C68.8207 13.5241 68.9534 13.7411 69.2186 13.9019C69.4839 14.0627 69.9622 14.2154 70.6535 14.3722C71.6423 14.5892 72.3456 14.8103 72.7717 15.0434C73.5876 15.4815 73.9935 16.1246 73.9935 16.9646C73.9935 17.3746 73.8971 17.7403 73.7001 18.0659C73.5032 18.3914 73.2459 18.6406 72.9244 18.8255C72.6029 19.0064 72.2572 19.143 71.8874 19.2355C71.5177 19.3279 71.1519 19.3641 70.7781 19.3641Z" fill="black"/>
<path d="M82.6579 11.1377H84.0083V19.2245H82.5855V13.5774L79.9408 17.1545L77.3082 13.5653V19.2245H75.8975V11.1377H77.2037L79.9328 14.9118L82.6579 11.1377Z" fill="black"/>
<path d="M67.5547 33.1087V25.022H73.7524V26.3282H68.9896V28.1811H72.5185V29.4994H68.9896V31.7904H73.8127V33.1087H67.5547Z" fill="black"/>
<path d="M75.7188 33.1087V25.022H77.025L81.4583 30.6932L81.4703 25.022H82.8811V33.1087H81.5869L77.1295 27.4175V33.1087H75.7188Z" fill="black"/>
<path d="M87.1841 33.1087V26.3403H84.5957V25.022H91.2195V26.3403H88.6311V33.1087H87.1841Z" fill="black"/>
<path d="M92.9365 33.1087V25.022H99.1342V26.3282H94.3714V28.1811H97.9003V29.4994H94.3714V31.7904H99.1945V33.1087H92.9365Z" fill="black"/>
<path d="M101.097 33.1087V25.022H105.297C105.719 25.022 106.093 25.0943 106.414 25.243C106.736 25.3877 106.981 25.5847 107.15 25.8339C107.319 26.079 107.443 26.3403 107.528 26.6096C107.612 26.8789 107.652 27.1602 107.652 27.4536C107.652 27.9721 107.523 28.4504 107.262 28.8885C107.005 29.3266 106.599 29.624 106.052 29.7808L108.086 33.1128H106.487L104.569 29.8974H102.536V33.1128H101.097V33.1087ZM102.532 28.575H105.156C105.502 28.575 105.763 28.4745 105.944 28.2736C106.125 28.0726 106.213 27.7993 106.213 27.4536C106.213 27.1241 106.129 26.8548 105.956 26.6538C105.783 26.4528 105.538 26.3524 105.216 26.3524H102.536V28.575H102.532Z" fill="black"/>
<path d="M111.354 33.1087V26.3403H108.766V25.022H115.385V26.3403H112.797V33.1087H111.354Z" fill="black"/>
<path d="M115.337 33.1101L119.171 24.9751H120.429L124.264 33.1101H122.736L121.864 31.2251H117.676L116.784 33.1101H115.337ZM118.287 29.9389H121.261L119.79 26.7677L118.287 29.9389Z" fill="black"/>
<path d="M125.712 33.1087V25.022H127.147V33.1087H125.712Z" fill="black"/>
<path d="M129.535 33.1087V25.022H130.841L135.275 30.6932L135.287 25.022H136.697V33.1087H135.403L130.946 27.4175V33.1087H129.535Z" fill="black"/>
<path d="M145.764 25.022H147.115V33.1087H145.692V27.4617L143.047 31.0388L140.415 27.4496V33.1087H139.004V25.022H140.31L143.039 28.7961L145.764 25.022Z" fill="black"/>
<path d="M149.426 33.1087V25.022H155.623V26.3282H150.861V28.1811H154.39V29.4994H150.861V31.7904H155.684V33.1087H149.426Z" fill="black"/>
<path d="M157.582 33.1087V25.022H158.888L163.322 30.6932L163.334 25.022H164.744V33.1087H163.45L158.993 27.4175V33.1087H157.582Z" fill="black"/>
<path d="M169.047 33.1087V26.3403H166.459V25.022H173.079V26.3403H170.49V33.1087H169.047Z" fill="black"/>
<path d="M49.4987 24.2366C49.4987 26.5147 51.3519 28.3678 53.6299 28.3678C55.908 28.3678 57.7611 26.5147 57.7611 24.2366L57.7569 8.02734C57.7569 5.23815 55.4873 2.96851 52.6981 2.96851C51.8399 2.96851 51.0132 3.18096 50.2791 3.58062C49.8248 1.55499 48.0116 0.0362847 45.8513 0.0362847C44.6397 0.0362847 43.4996 0.507461 42.6435 1.36567L32.1199 11.8893L22.1495 2.03668C19.436 -0.678893 15.0166 -0.678893 12.3011 2.03668C11.954 2.38375 11.649 2.76027 11.3903 3.15783C11.3861 3.15783 11.3818 3.15783 11.3797 3.15783C9.52028 3.15783 7.7702 3.88142 6.45553 5.19818C3.73996 7.91376 3.73996 12.331 6.45553 15.0466L20.1512 28.7423C21.2976 29.8886 21.9307 31.4158 21.9307 33.0375C21.9307 34.2113 21.6005 35.3324 20.9842 36.2979C19.8441 36.0728 18.7545 35.5196 17.8731 34.6362L6.19891 22.9619C5.51318 22.2762 4.60238 21.8997 3.63268 21.8997C2.66299 21.8997 1.75219 22.2762 1.06646 22.9619C0.37652 23.6456 0 24.5564 0 25.5261C0 26.4958 0.37652 27.4066 1.06225 28.0923L10.9296 37.9596C12.2443 39.2743 13.9943 40 15.8538 40C17.7133 40 19.4634 39.2764 20.778 37.9596C20.9989 37.7388 21.2029 37.5053 21.3901 37.2613C21.6446 37.2886 21.9034 37.3034 22.1642 37.3034C24.0237 37.3034 25.7737 36.5798 27.0884 35.263C28.4031 33.9483 29.1288 32.1982 29.1288 30.3388C29.1288 28.4793 28.4052 26.7292 27.0884 25.4146L12.9321 11.2562C10.9885 9.31256 10.6393 6.37192 11.8846 4.06862C13.317 4.18642 14.6464 4.80063 15.675 5.82712L24.4906 14.6427C26.1818 16.336 28.9353 16.336 30.6285 14.6427L32.1241 13.1472L33.3441 14.3546C35.3109 16.3213 38.5123 16.3213 40.4791 14.3546L49.4987 5.33491V24.2366ZM50.3885 4.57556C50.3885 4.56925 50.3885 4.56294 50.3885 4.55663C51.0658 4.10228 51.863 3.86038 52.6981 3.86038C54.9951 3.86038 56.865 5.73036 56.865 8.02734L56.8692 24.2366C56.8692 26.0225 55.4158 27.476 53.6299 27.476C51.8441 27.476 50.3906 26.0225 50.3906 24.2366V4.57556H50.3885ZM20.1491 37.3307C17.7806 39.6992 13.927 39.6992 11.5585 37.3307L1.69329 27.4634C1.17584 26.9459 0.891869 26.2581 0.891869 25.5261C0.891869 24.7941 1.17584 24.1062 1.69329 23.5888C2.21074 23.0713 2.89857 22.7874 3.63058 22.7874C4.36258 22.7874 5.05042 23.0713 5.56787 23.5888L17.2421 35.263C18.1277 36.1486 19.2109 36.767 20.391 37.0762C20.3132 37.1645 20.2332 37.2487 20.1491 37.3307ZM12.3011 11.8851L26.4595 26.0435C28.828 28.412 28.828 32.2656 26.4595 34.6341C25.2205 35.873 23.5819 36.4662 21.9518 36.4073C22.5176 35.3871 22.8184 34.2344 22.8184 33.0354C22.8184 31.176 22.0948 29.4259 20.778 28.1112L7.08447 14.4177C5.93808 13.2713 5.30494 11.7463 5.30494 10.1224C5.30494 8.50062 5.93598 6.97561 7.08447 5.82712C8.11516 4.79642 9.45297 4.18221 10.8896 4.06652C9.72011 6.63695 10.1913 9.77532 12.3011 11.8851ZM29.9975 14.0138C28.6534 15.3579 26.4637 15.3579 25.1196 14.0138L16.3039 5.19818C15.2396 4.13383 13.8913 3.45652 12.4294 3.23565C12.5829 3.03793 12.7512 2.84862 12.9321 2.66561C15.3006 0.297114 19.1541 0.297114 21.5226 2.66772L31.4889 12.5203L29.9975 14.0138ZM49.1222 4.45146L39.848 13.7256C38.2284 15.3453 35.5927 15.3453 33.9709 13.7235L32.753 12.5182L43.2746 1.99671C43.9624 1.30888 44.8795 0.928153 45.8534 0.928153C47.715 0.928153 49.2526 2.32906 49.4735 4.13173C49.3515 4.2327 49.2337 4.33787 49.1222 4.45146Z" fill="black"/>
<path d="M53.6523 30.6924C51.1997 30.6924 49.2119 32.6802 49.2119 35.1328C49.2119 37.5854 51.1997 39.5732 53.6523 39.5732C56.105 39.5732 58.0927 37.5854 58.0927 35.1328C58.0927 32.6823 56.105 30.6924 53.6523 30.6924ZM53.6523 38.6834C51.694 38.6834 50.1017 37.0911 50.1017 35.1328C50.1017 33.1745 51.694 31.5821 53.6523 31.5821C55.6107 31.5821 57.203 33.1745 57.203 35.1328C57.203 37.0911 55.6085 38.6834 53.6523 38.6834Z" fill="black"/>
</svg>
