<svg width="168" height="120" viewBox="0 0 168 120" fill="none" xmlns="http://www.w3.org/2000/svg">
<path d="M80.5979 119.839C69.6772 118.44 60.5511 111.988 52.7094 100.124C49.4881 95.2503 45.9215 88.0495 43.0195 80.5606C42.6114 79.5075 41.9786 77.9252 41.6131 77.0444L40.9486 75.4429L38.6708 75.3244C34.4505 75.1049 32.4002 74.5378 30.2316 72.9904C26.0179 69.9835 25.2678 64.4091 28.4332 59.6251C30.4062 56.6431 33.823 54.0647 37.5063 52.7781C40.761 51.6413 44.5675 51.4126 47.5672 52.1735C52.2202 53.3538 55.3082 55.95 57.5286 60.5484L58.1851 61.9079L61.0966 60.4011C66.861 57.4179 70.8256 54.3864 74.1439 50.4247C78.3903 45.3549 80.8616 39.7332 82.02 32.5084C82.3858 30.2267 82.5325 23.9464 82.269 21.8445C81.5483 16.0955 79.1659 11.7594 75.2903 9.14304C69.4051 5.17 60.7696 5.44045 54.2774 9.80113C52.5805 10.9409 49.831 13.7988 48.5609 15.743C46.6211 18.7122 45.7657 20.8687 43.7195 27.9476C40.7235 38.3129 38.0739 44.1579 33.7191 50.0084C29.5893 55.1469 24.7829 60.338 18.3226 60.4107C17.5778 60.419 16.6881 60.3077 15.941 60.1647C14.3606 59.8623 11.5653 59.8588 5.17818 60.1485C2.52014 60.2691 0.476574 60.3321 0.180012 60.2886C-0.319376 60.2153 0.0850953 60.0679 3.13289 58.2918C8.28041 55.2921 9.54614 54.3806 12.3071 51.6849C15.1526 48.9065 17.2679 46.1085 19.3779 42.332C20.5495 40.235 21.4817 38.1735 24.0758 31.9436C28.0924 22.297 29.475 19.4349 31.8482 15.8529C33.5763 13.2446 34.5147 12.072 36.5414 9.98856C41.1096 5.29228 46.6233 2.19856 52.5929 0.982036C56.6328 0.158744 63.4348 -0.218928 67.9442 0.129666C75.2269 0.692642 82.0617 2.79565 87.4178 6.12152C94.1445 10.2985 98.9235 17.1253 100.599 24.9507C100.915 26.4272 100.975 27.2295 100.983 30.1121C100.99 32.2578 100.912 33.989 100.773 34.774C99.2065 43.6199 95.0976 51.0158 88.6799 56.5407C81.9485 62.3356 72.7709 66.88 62.6995 69.4054C61.5091 69.7039 60.5139 69.9658 60.4881 69.9873C60.4245 70.0403 62.0448 75.779 63.45 80.4773C66.195 89.6555 68.2078 94.9729 71.0667 100.599C74.9277 108.197 78.7958 112.071 83.4331 112.985C86.702 113.629 89.9896 112.33 92.9614 109.219C95.2884 106.784 97.1304 103.978 98.7579 100.39C100.267 97.062 105.54 83.3232 110.626 69.4688C115.264 56.8321 116.722 53.2105 119.479 47.4794C122.828 40.5176 126.844 34.3352 130.636 30.3042C135.756 24.8616 142.299 21.5841 148.862 21.1747C150.192 21.0917 150.682 21.1375 151.942 21.4625C153.73 21.9237 154.67 21.9291 162.401 21.5227C168.171 21.2194 168.947 21.2961 166.725 21.95C156.823 24.8649 149.159 31.3678 142.656 42.3734C139.338 47.9878 137.295 52.5077 130.548 69.1556C122.169 89.8295 119.487 95.5595 115.283 101.766C114.424 103.035 113.145 104.796 112.443 105.678C110.868 107.657 106.944 111.615 105.168 113.015C100.353 116.813 95.4217 118.973 89.7642 119.762C87.7654 120.041 82.5152 120.085 80.5979 119.839V119.839ZM37.9748 67.2778C37.9748 66.7199 36.8581 64.6604 36.1008 63.8215C35.1016 62.7146 33.9009 62.071 32.6184 61.9547C31.4312 61.8471 31.3208 61.9497 31.3184 63.1617C31.316 64.3776 31.5923 65.1804 32.272 65.9328C33.3449 67.1204 34.4379 67.5391 36.5179 67.5596C37.8086 67.5722 37.9748 67.5401 37.9748 67.2778V67.2778Z" fill="white"/>
</svg>
