<svg width="92" height="120" viewBox="0 0 92 120" fill="none" xmlns="http://www.w3.org/2000/svg">
<path d="M30.9821 0.0124779V78.6283C33.3006 79.1649 35.6724 80.2582 38.0854 80.3081V29.7214H38.1334C38.2336 30.4656 38.4783 31.1967 38.641 31.9292C39.0258 33.6621 39.4573 35.3853 39.8668 37.1126C40.974 41.7833 42.0711 46.4564 43.1784 51.1272C46.6594 65.8103 50.1014 80.5035 53.582 95.1866C54.8827 100.673 56.1689 106.163 57.4696 111.649L58.7175 116.928C58.9574 117.94 59.2992 118.957 59.2992 120H66.4024V41.4802C64.0262 41.291 61.7056 40.3779 59.2992 40.3283V88.4193C58.9526 87.6139 58.8399 86.6339 58.644 85.7796C58.2836 84.2092 57.9006 82.6436 57.5291 81.076C56.2928 75.8614 55.0694 70.6443 53.8335 65.4297C51.5053 55.6089 49.2025 45.7817 46.874 35.9607C45.7711 31.3086 44.5771 26.6671 43.5669 21.9942C42.3866 16.5348 41.0002 11.1109 39.7116 5.67589C39.3819 4.28475 39.074 2.88737 38.7272 1.50032C38.6461 1.17571 38.6021 0.271553 38.3379 0.0618086C38.2131 -0.0372397 37.9462 0.0124779 37.7974 0.0124779H36.4056H30.9821ZM47.0124 0.108468V7.21173H59.2992V20.7463V24.202L59.3486 25.4622L59.8271 25.5803L61.123 25.758L64.4346 26.3233L66.4024 26.6977V7.21173H78.6891V0.108468H47.0124ZM48.6443 28.5215L49.6219 32.6491L50.4681 36.2967C58.9752 36.2967 67.4742 37.5977 75.4255 40.722C78.1511 41.793 80.7217 43.164 83.2007 44.7162C83.8937 45.1502 84.5724 45.6419 85.2165 46.1458C85.4219 46.3066 85.8106 46.7471 86.0804 46.7523C86.4576 46.7595 87.1012 45.9324 87.3762 45.69C88.6217 44.5922 89.8509 43.4688 91.0719 42.3441C90.3351 41.3805 89.1108 40.5794 88.1442 39.8544C85.8961 38.1682 83.5064 36.6778 80.9929 35.4209C70.9 30.3744 59.8319 28.4907 48.6443 28.5215V28.5215ZM27.3825 31.8812C25.6877 32.6324 23.8566 33.0942 22.151 33.8423C17.6738 35.806 13.3777 38.2275 9.67233 41.4457C6.94761 43.8121 4.43473 46.6169 2.74879 49.8313C1.63839 51.9484 0.784255 54.1456 0.342634 56.5026C-1.37075 65.6471 3.54599 74.2656 10.5362 79.8666C21.4314 88.5964 35.6283 91.8322 49.3162 92.1149C48.9414 90.2997 48.4825 88.4908 48.0381 86.6915C47.9322 86.2614 47.8251 85.8285 47.7324 85.3956C47.6999 85.2444 47.6854 84.9728 47.5258 84.8964C47.1587 84.7217 46.5052 84.8499 46.1005 84.8115C44.8064 84.6882 43.5078 84.6142 42.2129 84.4755C38.424 84.07 34.64 83.3241 30.9821 82.2558C24.2985 80.3028 17.8539 77.211 12.888 72.245C8.75275 68.1097 6.57732 62.2937 8.23248 56.5506C8.74612 54.7681 9.62986 53.1257 10.6814 51.6071C12.1597 49.4723 14.0947 47.6413 16.1517 46.0711C18.5018 44.277 21.1006 42.8375 23.7829 41.6093C24.9558 41.0723 26.183 40.4768 27.4305 40.1363V34.3289C27.4305 33.6426 27.6467 32.5109 27.3825 31.8812V31.8812ZM69.9541 89.4272C75.6784 87.8025 81.373 85.494 86.2724 82.0705C87.4218 81.2671 88.555 80.4526 89.632 79.5522C89.8336 79.3833 90.6423 78.8707 90.5761 78.5803C90.4897 78.2002 89.896 77.7893 89.632 77.5244C88.8665 76.7551 88.1398 75.9454 87.3762 75.1727C87.1502 74.9437 86.7139 74.2305 86.3684 74.2219C86.0842 74.2152 85.6273 74.7465 85.4084 74.9159C84.5714 75.5633 83.7037 76.1638 82.8167 76.7402C80.0402 78.5434 76.993 79.9386 73.8896 81.0736C72.9384 81.4216 71.9722 81.7216 71.0099 82.0359C70.7599 82.1175 70.1604 82.1756 70.0035 82.3964C69.907 82.5327 69.9541 82.7904 69.9541 82.9478V84.2917V89.4272V89.4272ZM30.9821 93.3148V120H38.0854V101.33V96.5304V95.2826L38.036 94.7901L37.5094 94.6548L36.1656 94.4225L30.9821 93.3148Z" fill="white"/>
</svg>
